<svg width="400" height="400" viewBox="0 0 400 400" fill="none" xmlns="http://www.w3.org/2000/svg">
<g style="mix-blend-mode:color-burn" opacity="0.3">
<path d="M200 81.25C182.769 81.25 168.75 95.2688 168.75 112.5C168.75 129.731 182.769 143.75 200 143.75C217.231 143.75 231.25 129.731 231.25 112.5C231.25 95.2688 217.231 81.25 200 81.25ZM200 137.5C186.194 137.5 175 126.306 175 112.5C175 98.6937 186.194 87.5 200 87.5C213.806 87.5 225 98.6937 225 112.5C225 126.306 213.806 137.5 200 137.5Z" fill="white" fill-opacity="0.3"/>
<path d="M281.25 143.75C281.25 98.8687 244.881 62.5 200 62.5C155.119 62.5 118.75 98.8687 118.75 143.75C118.75 175.094 136.513 202.238 162.5 215.788V337.5L193.75 368.75L237.5 312.5L218.75 293.75V256.25L237.5 237.5V215.788C263.487 202.238 281.25 175.094 281.25 143.75ZM193.163 359.325L187.5 353.656V218.75C187.5 215.306 190.306 212.5 193.75 212.5C197.194 212.5 200 215.306 200 218.75V350.531L193.163 359.325ZM234.612 210.25L231.25 212V215.788V234.912L214.331 251.831L212.5 253.662V256.25V293.75V296.338L214.331 298.169L229.175 313.019L206.25 342.5V218.75C206.25 211.856 200.644 206.25 193.75 206.25C186.856 206.25 181.25 211.856 181.25 218.75V347.412L168.75 334.912V215.788V212L165.387 210.25C140.475 197.256 125 171.775 125 143.75C125 102.394 158.644 68.75 200 68.75C241.356 68.75 275 102.394 275 143.75C275 171.775 259.525 197.256 234.612 210.25Z" fill="white" fill-opacity="0.3"/>
<path d="M150 57.15L146.875 51.7375C139.113 56.2187 132.231 61.6187 126.075 67.6L108.019 37.5H50V31.25H31.25V50H50V43.75H104.481L121.525 72.15C115.806 78.425 111.006 85.35 107.006 92.6687L89.0625 68.75H75V62.5H56.25V81.25H75V75H85.9375L103.75 98.75L103.912 98.625C100.887 105.087 98.55 111.831 96.875 118.75H76.675L64.175 100H50V93.75H31.25V112.5H50V106.25H60.825L73.325 125H95.5125C94.0375 133.206 93.5687 141.594 94.0562 150H73.0687L60.5687 175H50V168.75H31.25V187.5H50V181.25H64.4313L76.9313 156.25H94.5188C96.15 170.175 100.544 183.987 107.987 196.875L113.4 193.744C85.7812 145.919 102.169 84.7625 150 57.15ZM43.75 43.75H37.5V37.5H43.75V43.75ZM68.75 75H62.5V68.75H68.75V75ZM43.75 106.25H37.5V100H43.75V106.25ZM43.75 181.25H37.5V175H43.75V181.25Z" fill="white" fill-opacity="0.3"/>
<path d="M368.75 118.75V100H350V106.25H335.569L323.069 131.25H305.481C303.85 117.325 299.456 103.512 292.013 90.6187L286.6 93.75C314.219 141.575 297.831 202.737 250 230.344L253.125 235.756C260.806 231.325 267.625 225.987 273.738 220.081L291.819 256.25H350V262.5H368.75V243.75H350V250H295.681L278.4 215.437C284.069 209.231 288.831 202.388 292.825 195.15L310.731 225H325V231.25H343.75V212.5H325V218.75H314.269L296.431 189.019L295.881 189.35C299.006 182.744 301.406 175.837 303.125 168.756H323.069L335.569 193.756H350V200.006H368.75V181.256H350V187.506H339.431L326.931 162.506H304.481C305.962 154.3 306.425 145.912 305.944 137.506H326.931L339.431 112.506H350V118.756H368.75V118.75ZM356.25 106.244H362.5V112.494H356.25V106.244ZM356.25 250L362.5 249.994V256.244H356.25V250ZM331.25 218.744H337.5V224.994H331.25V218.744ZM356.25 187.5L362.5 187.494V193.744H356.25V187.5Z" fill="white" fill-opacity="0.3"/>
</g>
</svg>
